<svg width="3818" height="1614" xmlns="http://www.w3.org/2000/svg" xmlns:xlink="http://www.w3.org/1999/xlink" xml:space="preserve" overflow="hidden"><g transform="translate(-252 -462)"><g><path d="M259.5 532.667C259.5 514.35 274.35 499.5 292.667 499.5L1110.33 499.5C1128.65 499.5 1143.5 514.35 1143.5 532.667L1143.5 665.333C1143.5 683.65 1128.65 698.5 1110.33 698.5L292.667 698.5C274.35 698.5 259.5 683.65 259.5 665.333Z" stroke="#000000" stroke-width="9.16667" stroke-linecap="butt" stroke-linejoin="round" stroke-miterlimit="10" stroke-opacity="1" fill="#000000" fill-rule="evenodd" fill-opacity="1"/><text fill="#FFFFFF" fill-opacity="1" font-family="Times New Roman,Times New Roman_MSFontService,sans-serif" font-style="normal" font-variant="normal" font-weight="400" font-stretch="normal" font-size="110" text-anchor="start" direction="ltr" writing-mode="lr-tb" unicode-bidi="normal" text-decoration="none" transform="matrix(1 0 0 1 478.453 639)">CellSpace</text><path d="M2308.5 501.668C2308.5 483.35 2323.35 468.5 2341.67 468.5L3157.33 468.5C3175.65 468.5 3190.5 483.35 3190.5 501.668L3190.5 634.332C3190.5 652.65 3175.65 667.5 3157.33 667.5L2341.67 667.5C2323.35 667.5 2308.5 652.65 2308.5 634.332Z" stroke="#000000" stroke-width="9.16667" stroke-linecap="butt" stroke-linejoin="round" stroke-miterlimit="10" stroke-opacity="1" fill="#000000" fill-rule="evenodd" fill-opacity="1"/><text fill="#FFFFFF" fill-opacity="1" font-family="Times New Roman,Times New Roman_MSFontService,sans-serif" font-style="normal" font-variant="normal" font-weight="400" font-stretch="normal" font-size="110" text-anchor="start" direction="ltr" writing-mode="lr-tb" unicode-bidi="normal" text-decoration="none" transform="matrix(1 0 0 1 2440.43 607)">CellBoundary</text><path d="M824.5 800.667C824.5 782.349 839.349 767.5 857.667 767.5L1816.33 767.5C1834.65 767.5 1849.5 782.349 1849.5 800.667L1849.5 933.333C1849.5 951.651 1834.65 966.5 1816.33 966.5L857.667 966.5C839.349 966.5 824.5 951.651 824.5 933.333Z" stroke="#000000" stroke-width="9.16667" stroke-linecap="butt" stroke-linejoin="round" stroke-miterlimit="10" stroke-opacity="1" fill="#1675AF" fill-rule="evenodd" fill-opacity="1"/><text fill="#FFFFFF" fill-opacity="1" font-family="Times New Roman,Times New Roman_MSFontService,sans-serif" font-style="normal" font-variant="normal" font-weight="400" font-stretch="normal" font-size="110" text-anchor="start" direction="ltr" writing-mode="lr-tb" unicode-bidi="normal" text-decoration="none" transform="matrix(1 0 0 1 979.492 907)">NavigableSpace</text><path d="M824.5 1873.67C824.5 1855.35 839.349 1840.5 857.667 1840.5L1816.33 1840.5C1834.65 1840.5 1849.5 1855.35 1849.5 1873.67L1849.5 2006.33C1849.5 2024.65 1834.65 2039.5 1816.33 2039.5L857.667 2039.5C839.349 2039.5 824.5 2024.65 824.5 2006.33Z" stroke="#000000" stroke-width="9.16667" stroke-linecap="butt" stroke-linejoin="round" stroke-miterlimit="10" stroke-opacity="1" fill="#1675AF" fill-rule="evenodd" fill-opacity="1"/><text fill="#FFFFFF" fill-opacity="1" font-family="Times New Roman,Times New Roman_MSFontService,sans-serif" font-style="normal" font-variant="normal" font-weight="400" font-stretch="normal" font-size="110" text-anchor="start" direction="ltr" writing-mode="lr-tb" unicode-bidi="normal" text-decoration="none" transform="matrix(1 0 0 1 884.675 1979)">NonNavigableSpace</text><path d="M1461.5 1068.67C1461.5 1050.35 1476.35 1035.5 1494.67 1035.5L2402.33 1035.5C2420.65 1035.5 2435.5 1050.35 2435.5 1068.67L2435.5 1201.33C2435.5 1219.65 2420.65 1234.5 2402.33 1234.5L1494.67 1234.5C1476.35 1234.5 1461.5 1219.65 1461.5 1201.33Z" stroke="#080808" stroke-width="9.16667" stroke-linecap="butt" stroke-linejoin="round" stroke-miterlimit="10" stroke-opacity="1" fill="#1675AF" fill-rule="evenodd" fill-opacity="1"/><text fill="#FFFFFF" fill-opacity="1" font-family="Times New Roman,Times New Roman_MSFontService,sans-serif" font-style="normal" font-variant="normal" font-weight="400" font-stretch="normal" font-size="110" text-anchor="start" direction="ltr" writing-mode="lr-tb" unicode-bidi="normal" text-decoration="none" transform="matrix(1 0 0 1 1643.16 1175)">GeneralSpace</text><path d="M1461.5 1336.67C1461.5 1318.35 1476.35 1303.5 1494.67 1303.5L2402.33 1303.5C2420.65 1303.5 2435.5 1318.35 2435.5 1336.67L2435.5 1469.33C2435.5 1487.65 2420.65 1502.5 2402.33 1502.5L1494.67 1502.5C1476.35 1502.5 1461.5 1487.65 1461.5 1469.33Z" stroke="#080808" stroke-width="9.16667" stroke-linecap="butt" stroke-linejoin="round" stroke-miterlimit="10" stroke-opacity="1" fill="#1675AF" fill-rule="evenodd" fill-opacity="1"/><text fill="#FFFFFF" fill-opacity="1" font-family="Times New Roman,Times New Roman_MSFontService,sans-serif" font-style="normal" font-variant="normal" font-weight="400" font-stretch="normal" font-size="110" text-anchor="start" direction="ltr" writing-mode="lr-tb" unicode-bidi="normal" text-decoration="none" transform="matrix(1 0 0 1 1632.78 1443)">TransferSpac</text><text fill="#FFFFFF" fill-opacity="1" font-family="Times New Roman,Times New Roman_MSFontService,sans-serif" font-style="normal" font-variant="normal" font-weight="400" font-stretch="normal" font-size="110" text-anchor="start" direction="ltr" writing-mode="lr-tb" unicode-bidi="normal" text-decoration="none" transform="matrix(1 0 0 1 2215 1443)">e</text><path d="M2872.5 1873.67C2872.5 1855.35 2887.35 1840.5 2905.67 1840.5L3813.33 1840.5C3831.65 1840.5 3846.5 1855.35 3846.5 1873.67L3846.5 2006.33C3846.5 2024.65 3831.65 2039.5 3813.33 2039.5L2905.67 2039.5C2887.35 2039.5 2872.5 2024.65 2872.5 2006.33Z" stroke="#000000" stroke-width="9.16667" stroke-linecap="butt" stroke-linejoin="round" stroke-miterlimit="10" stroke-opacity="1" fill="#1675AF" fill-rule="evenodd" fill-opacity="1"/><text fill="#FFFFFF" fill-opacity="1" font-family="Times New Roman,Times New Roman_MSFontService,sans-serif" font-style="normal" font-variant="normal" font-weight="400" font-stretch="normal" font-size="110" text-anchor="start" direction="ltr" writing-mode="lr-tb" unicode-bidi="normal" text-decoration="none" transform="matrix(1 0 0 1 3227.77 1979)">Route</text><path d="M0 0 168.64 0 168.64 122.941" stroke="#000000" stroke-width="10.3125" stroke-linecap="butt" stroke-linejoin="round" stroke-miterlimit="10" stroke-opacity="1" fill="none" fill-rule="evenodd" transform="matrix(1.83697e-16 1 1 -1.83697e-16 701 698)"/><path d="M0 0 1241.14 0 1241.14 122.941" stroke="#000000" stroke-width="10.3125" stroke-linecap="butt" stroke-linejoin="round" stroke-miterlimit="10" stroke-opacity="1" fill="none" fill-rule="evenodd" transform="matrix(1.83697e-16 1 1 -1.83697e-16 701 698)"/><path d="M0 0 168.64 0 168.64 124.906" stroke="#000000" stroke-width="10.3125" stroke-linecap="butt" stroke-linejoin="round" stroke-miterlimit="10" stroke-opacity="1" fill="none" fill-rule="evenodd" transform="matrix(1.83697e-16 1 1 -1.83697e-16 1336 966)"/><path d="M0 0 436.765 0 436.765 124.906" stroke="#000000" stroke-width="10.3125" stroke-linecap="butt" stroke-linejoin="round" stroke-miterlimit="10" stroke-opacity="1" fill="none" fill-rule="evenodd" transform="matrix(1.83697e-16 1 1 -1.83697e-16 1336 966)"/><path d="M0 0 523.079 0 523.079 123.403" stroke="#000000" stroke-width="10.3125" stroke-linecap="butt" stroke-linejoin="round" stroke-miterlimit="10" stroke-opacity="1" fill="none" fill-rule="evenodd" transform="matrix(1.83697e-16 1 1 -1.83697e-16 2749 667)"/><path d="M2872.5 825.667C2872.5 807.349 2887.35 792.5 2905.67 792.5L3864.33 792.5C3882.65 792.5 3897.5 807.349 3897.5 825.667L3897.5 958.333C3897.5 976.651 3882.65 991.5 3864.33 991.5L2905.67 991.5C2887.35 991.5 2872.5 976.651 2872.5 958.333Z" stroke="#000000" stroke-width="9.16667" stroke-linecap="butt" stroke-linejoin="round" stroke-miterlimit="10" stroke-opacity="1" fill="#1675AF" fill-rule="evenodd" fill-opacity="1"/><text fill="#FFFFFF" fill-opacity="1" font-family="Times New Roman,Times New Roman_MSFontService,sans-serif" font-style="normal" font-variant="normal" font-weight="400" font-stretch="normal" font-size="110" text-anchor="start" direction="ltr" writing-mode="lr-tb" unicode-bidi="normal" text-decoration="none" transform="matrix(1 0 0 1 2941.93 932)">NavigableBoundary</text><path d="M2872.5 1123.67C2872.5 1105.35 2887.35 1090.5 2905.67 1090.5L4019.33 1090.5C4037.65 1090.5 4052.5 1105.35 4052.5 1123.67L4052.5 1256.33C4052.5 1274.65 4037.65 1289.5 4019.33 1289.5L2905.67 1289.5C2887.35 1289.5 2872.5 1274.65 2872.5 1256.33Z" stroke="#000000" stroke-width="9.16667" stroke-linecap="butt" stroke-linejoin="round" stroke-miterlimit="10" stroke-opacity="1" fill="#1675AF" fill-rule="evenodd" fill-opacity="1"/><text fill="#FFFFFF" fill-opacity="1" font-family="Times New Roman,Times New Roman_MSFontService,sans-serif" font-style="normal" font-variant="normal" font-weight="400" font-stretch="normal" font-size="110" text-anchor="start" direction="ltr" writing-mode="lr-tb" unicode-bidi="normal" text-decoration="none" transform="matrix(1 0 0 1 2924.58 1230)">NonNavigableBoundary</text><path d="M0 0 224.931 0 224.931 123.403" stroke="#000000" stroke-width="10.3125" stroke-linecap="butt" stroke-linejoin="round" stroke-miterlimit="10" stroke-opacity="1" fill="none" fill-rule="evenodd" transform="matrix(1.83697e-16 1 1 -1.83697e-16 2749 667)"/><path d="M1459.5 1605.67C1459.5 1587.35 1474.35 1572.5 1492.67 1572.5L2400.33 1572.5C2418.65 1572.5 2433.5 1587.35 2433.5 1605.67L2433.5 1738.33C2433.5 1756.65 2418.65 1771.5 2400.33 1771.5L1492.67 1771.5C1474.35 1771.5 1459.5 1756.65 1459.5 1738.33Z" stroke="#080808" stroke-width="9.16667" stroke-linecap="butt" stroke-linejoin="round" stroke-miterlimit="10" stroke-opacity="1" fill="#1675AF" fill-rule="evenodd" fill-opacity="1"/><text fill="#FFFFFF" fill-opacity="1" font-family="Times New Roman,Times New Roman_MSFontService,sans-serif" font-style="normal" font-variant="normal" font-weight="400" font-stretch="normal" font-size="110" text-anchor="start" direction="ltr" writing-mode="lr-tb" unicode-bidi="normal" text-decoration="none" transform="matrix(1 0 0 1 1668.81 1711)">ObjectSpace</text><path d="M0 0 704.889 0 704.889 123.056" stroke="#000000" stroke-width="10.3125" stroke-linecap="butt" stroke-linejoin="round" stroke-miterlimit="10" stroke-opacity="1" fill="none" fill-rule="evenodd" transform="matrix(1.83697e-16 1 1 -1.83697e-16 1336 966)"/><path d="M640.5 804.5 702 698.5 763.5 804.5Z" stroke="#000000" stroke-width="9.16667" stroke-linecap="butt" stroke-linejoin="round" stroke-miterlimit="10" stroke-opacity="1" fill="#000000" fill-rule="evenodd" fill-opacity="1"/><path d="M1275.5 1082.5 1337 976.5 1398.5 1082.5Z" stroke="#000000" stroke-width="9.16667" stroke-linecap="butt" stroke-linejoin="round" stroke-miterlimit="10" stroke-opacity="1" fill="#000000" fill-rule="evenodd" fill-opacity="1"/><path d="M2682.5 782.5 2744 676.5 2805.5 782.5Z" stroke="#000000" stroke-width="9.16667" stroke-linecap="butt" stroke-linejoin="round" stroke-miterlimit="10" stroke-opacity="1" fill="#000000" fill-rule="evenodd" fill-opacity="1"/></g></g></svg>